<?xml version="1.0" encoding="iso-8859-1"?>
<!-- Generator: Adobe Illustrator 19.0.0, SVG Export Plug-In . SVG Version: 6.00 Build 0)  -->
<svg version="1.1" id="Layer_1" xmlns="http://www.w3.org/2000/svg" xmlns:xlink="http://www.w3.org/1999/xlink" x="0px" y="0px"
	 viewBox="0 0 512.003 512.003" style="enable-background:new 0 0 512.003 512.003;" xml:space="preserve">
<path style="fill:#FFC473;" d="M490.647,287.127c-0.055-0.102-0.102-0.204-0.155-0.308c6.472-8.602,10.171-18.622,10.611-29.09
	c0.231-5.497-0.459-10.913-1.988-16.11c-2.346-7.979-6.689-15.43-12.843-21.805c-17.025-17.502-36.853-33.056-59.062-46.368
	c-0.908-0.545-1.813-1.091-2.73-1.629c0.31-7.067-0.893-14.073-3.601-20.724c-2.091-5.041-4.921-9.711-8.351-13.925
	c-7.095-8.712-16.794-15.44-28.081-19.22c-40.626-14.094-83.796-21.243-128.309-21.243c-44.516,0-87.682,7.146-128.308,21.242
	c-9.094,3.047-17.472,8.23-24.233,14.992c-1.364,1.362-2.639,2.783-3.834,4.255c-8.102,9.982-12.283,22.284-11.893,34.554
	c-0.945,0.551-1.882,1.111-2.817,1.671c-20.831,12.433-39.503,26.848-55.631,42.974l-3.276,3.274
	c-0.123,0.124-0.247,0.251-0.366,0.382c-6.067,6.515-10.293,13.815-12.598,21.593c-1.601,5.401-2.285,11.031-1.981,16.797
	c0.538,10.221,4.208,19.989,10.539,28.381c-0.049,0.094-0.095,0.19-0.144,0.284C7.697,313.826,0.259,343.068,0,372.344
	c0,0.043,0,0.086,0,0.131v0.544c0,0.772,0.061,1.542,0.18,2.303c2.54,16.088,13.195,29.488,28.506,35.865
	c6.465,2.73,13.264,4.113,20.208,4.113c14.5,0,27.759-6.093,36.419-16.729c3.238-3.775,6.399-7.412,9.457-10.471
	c7.477-7.477,15.455-14.195,23.804-20.049c0.243,0.143,0.494,0.278,0.739,0.416c10.003,5.705,21.712,8.777,33.937,8.777
	c6.688,0,13.222-0.923,19.52-2.72c2.476-0.709,4.919-1.538,7.316-2.519c1.81-0.707,3.512-1.356,5.152-1.966
	c0.831-0.308,1.65-0.611,2.446-0.898c10.038,10.908,24.408,17.995,40.351,19.799c2.652,0.3,5.342,0.469,8.07,0.469
	c2.217,0,4.464-0.105,6.679-0.31c0.088-0.008,0.174-0.017,0.26-0.026c4.12-0.458,9.177-0.458,13.638-0.458
	c4.503,0,9.399,0.251,14.151,0.504c2.155,0.208,4.341,0.315,6.508,0.315c2.291,0,4.572-0.12,6.83-0.347
	c15.118-1.525,29.304-8.051,39.691-18.438c0.602-0.602,1.178-1.2,1.731-1.797c0.594,0.208,1.17,0.418,1.733,0.627
	c1.952,0.719,3.734,1.425,5.354,2.119c0.066,0.026,0.131,0.055,0.197,0.082c2.32,0.956,4.686,1.768,7.089,2.462
	c6.32,1.823,12.911,2.759,19.683,2.759c11.778,0,23.046-2.777,32.761-7.971c0.645-0.345,1.286-0.703,1.917-1.067
	c12.864,9.231,24.116,19.467,33.535,30.521c8.404,9.979,20.639,15.898,34.458,16.665c0.139,0.008,0.28,0.013,0.418,0.017
	c0.523,0.015,1.045,0.022,1.568,0.022c13.882,0,26.907-5.064,35.73-13.888c7.605-7.603,11.967-17.972,11.967-28.455v-0.544
	C512,343.029,504.819,314.462,490.647,287.127z"/>
<g>
	<path style="fill:#FFA81F;" d="M499.114,241.618c-2.346-7.979-6.689-15.43-12.843-21.805
		c-17.025-17.502-36.853-33.056-59.062-46.368l-13.451,26.399l-72.944,143.159l-13.49,26.476c1.952,0.719,3.734,1.425,5.354,2.119
		c0.066,0.026,0.131,0.055,0.197,0.082c2.32,0.956,4.686,1.768,7.089,2.462c6.32,1.823,12.911,2.759,19.683,2.759
		c11.778,0,23.046-2.777,32.761-7.971l24.947-20.771l49.946-41.591l23.346-19.441c-0.055-0.102-0.102-0.204-0.155-0.308
		c6.472-8.602,10.171-18.622,10.611-29.09C501.334,252.232,500.644,246.814,499.114,241.618z"/>
	<path style="fill:#FFA81F;" d="M171.738,343.55L98.5,199.809l-13.447-26.391C64.222,185.85,45.55,200.265,29.422,216.39
		l-3.276,3.274c-0.123,0.124-0.247,0.251-0.366,0.382c-6.067,6.515-10.293,13.815-12.598,21.593
		c-1.601,5.401-2.285,11.031-1.981,16.797c0.538,10.221,4.208,19.989,10.539,28.381c-0.049,0.094-0.095,0.19-0.144,0.284
		l23.341,19.436l50.369,41.941l24.006,19.987c10.003,5.705,21.712,8.777,33.937,8.777c6.689,0,13.222-0.923,19.52-2.72
		c2.476-0.709,4.919-1.538,7.316-2.519c1.809-0.707,3.512-1.356,5.152-1.966L171.738,343.55z"/>
</g>
<path style="opacity:0.15;enable-background:new    ;" d="M490.646,287.127c-0.055-0.102-0.102-0.204-0.155-0.308
	c6.472-8.602,10.171-18.622,10.611-29.09c0.231-5.497-0.46-10.913-1.988-16.11c-2.346-7.979-6.689-15.43-12.843-21.805
	c-17.025-17.502-36.853-33.056-59.062-46.368c-0.908-0.545-1.813-1.091-2.73-1.629c0.31-7.067-0.893-14.073-3.601-20.724
	c-2.091-5.041-4.921-9.711-8.351-13.925c-7.095-8.712-16.794-15.44-28.081-19.22c-40.626-14.094-83.796-21.243-128.309-21.243
	c-0.045,0-0.091,0.001-0.137,0.001v291.91c0.227,0,0.457,0,0.68,0c4.503,0,9.399,0.251,14.151,0.504
	c2.155,0.208,4.341,0.315,6.508,0.315c2.291,0,4.572-0.12,6.83-0.347c15.118-1.525,29.304-8.051,39.691-18.438
	c0.602-0.602,1.178-1.2,1.731-1.797c0.594,0.208,1.17,0.418,1.733,0.627c1.952,0.719,3.734,1.425,5.354,2.119
	c0.066,0.026,0.131,0.055,0.197,0.082c2.32,0.956,4.686,1.768,7.089,2.462c6.32,1.823,12.911,2.759,19.683,2.759
	c11.778,0,23.046-2.777,32.761-7.971c0.645-0.345,1.286-0.703,1.917-1.067c12.864,9.231,24.116,19.467,33.535,30.521
	c8.404,9.979,20.639,15.898,34.458,16.665c0.139,0.008,0.28,0.013,0.418,0.017c0.523,0.015,1.045,0.023,1.568,0.023
	c13.882,0,26.907-5.064,35.73-13.888c7.605-7.603,11.967-17.972,11.967-28.455v-0.544C512,343.029,504.819,314.462,490.646,287.127z
	"/>
<g>
</g>
<g>
</g>
<g>
</g>
<g>
</g>
<g>
</g>
<g>
</g>
<g>
</g>
<g>
</g>
<g>
</g>
<g>
</g>
<g>
</g>
<g>
</g>
<g>
</g>
<g>
</g>
<g>
</g>
</svg>
